<?xml version="1.0" encoding="iso-8859-1"?>
<!-- Uploaded to: SVG Repo, www.svgrepo.com, Generator: SVG Repo Mixer Tools -->
<svg version="1.1" id="Layer_1" xmlns="http://www.w3.org/2000/svg" xmlns:xlink="http://www.w3.org/1999/xlink" 
	 viewBox="0 0 512 512" xml:space="preserve">
<circle style="fill:#FF2746;" cx="256" cy="256" r="256"/>
<path style="fill:#A01335;" d="M308.379,506.628C424.639,482.454,512,379.433,512,256c0-2.345-0.036-4.68-0.098-7.009
	L353.816,90.905l-65.636,27.183l-11.428,133.93L119.38,284.444l139.735,139.735L256,454.249L308.379,506.628z"/>
<rect x="256" y="226.694" style="fill:#FFC61B;" width="28.444" height="227.556"/>
<rect x="268.36" y="226.694" style="fill:#D48B07;" width="16.089" height="227.556"/>
<path style="fill:#FFAD9E;" d="M204.714,284.444H375.38v-85.333c0-31.418-25.471-56.889-56.889-56.889H176.269L204.714,284.444z"/>
<path style="fill:#FF6262;" d="M375.38,199.111c0-31.418-25.471-56.889-56.889-56.889h-50.136v142.222H375.38V199.111z"/>
<path style="fill:#FFFFFF;" d="M119.38,199.111c0-31.418,25.471-56.889,56.889-56.889s56.889,25.471,56.889,56.889v85.333H119.38
	V199.111z"/>
<path style="fill:#366695;" d="M349.482,89.416h-68.687v99.873c0,3.17,2.57,5.741,5.741,5.741l0,0c3.17,0,5.741-2.57,5.741-5.741
	v-61.99h57.208c3.91,0,7.078-3.169,7.078-7.078V96.494C356.561,92.584,353.392,89.416,349.482,89.416z"/>
</svg>